<?xml version="1.0" standalone="no"?><svg xmlns="http://www.w3.org/2000/svg" viewBox="0 0 1440 320"><path fill="#0099ff" fill-opacity="1" d="M0,256L26.7,261.3C53.3,267,107,277,160,245.3C213.3,213,267,139,320,96C373.3,53,427,43,480,53.3C533.3,64,587,96,640,96C693.3,96,747,64,800,69.3C853.3,75,907,117,960,149.3C1013.3,181,1067,203,1120,197.3C1173.3,192,1227,160,1280,128C1333.3,96,1387,64,1413,48L1440,32L1440,320L1413.3,320C1386.7,320,1333,320,1280,320C1226.7,320,1173,320,1120,320C1066.7,320,1013,320,960,320C906.7,320,853,320,800,320C746.7,320,693,320,640,320C586.7,320,533,320,480,320C426.7,320,373,320,320,320C266.7,320,213,320,160,320C106.7,320,53,320,27,320L0,320Z"></path></svg>